<svg xmlns="http://www.w3.org/2000/svg" width="1252" height="912" viewBox="0 0 1252 912" font-family="-apple-system,'Apple SD Gothic Neo','Noto Sans KR',system-ui,sans-serif">
  <rect width="1252" height="912" fill="#f7f2e8"/>
  <text x="626" y="44" font-size="26" font-weight="800" fill="#3a322a" text-anchor="middle">🥚 클로도치 성장 가계도</text><text x="626" y="68" font-size="13.5" fill="#8a7d6b" text-anchor="middle">나이 = 컨텍스트 사용률 · 분기는 케어 스탯이 결정 (경로 의존적, 랜덤 아님)</text><text x="18" y="258" font-size="13" font-weight="700" fill="#3a322a">성장기</text><text x="18" y="275" font-size="11" fill="#8a7d6b">🧠 지능</text><text x="18" y="394" font-size="13" font-weight="700" fill="#3a322a">청년기</text><text x="18" y="411" font-size="11" fill="#8a7d6b">⚡ 성실</text><text x="18" y="530" font-size="13" font-weight="700" fill="#3a322a">성체</text><text x="18" y="547" font-size="11" fill="#8a7d6b">🧼 청결 高</text><text x="18" y="668" font-size="13" font-weight="700" fill="#3a322a">성체</text><text x="18" y="685" font-size="11" fill="#8a7d6b">🧼 청결 低</text><rect x="517" y="85" width="78" height="70" rx="14" fill="#fffdf8" stroke="#e7ddc9"/><rect x="549" y="104" width="7" height="7" fill="rgb(238,228,205)"/><rect x="556" y="104" width="7" height="7" fill="rgb(238,228,205)"/><rect x="542" y="111" width="7" height="7" fill="rgb(238,228,205)"/><rect x="549" y="111" width="7" height="7" fill="rgb(150,110,80)"/><rect x="556" y="111" width="7" height="7" fill="rgb(238,228,205)"/><rect x="563" y="111" width="7" height="7" fill="rgb(238,228,205)"/><rect x="542" y="118" width="7" height="7" fill="rgb(238,228,205)"/><rect x="549" y="118" width="7" height="7" fill="rgb(238,228,205)"/><rect x="556" y="118" width="7" height="7" fill="rgb(150,110,80)"/><rect x="563" y="118" width="7" height="7" fill="rgb(238,228,205)"/><rect x="549" y="125" width="7" height="7" fill="rgb(238,228,205)"/><rect x="556" y="125" width="7" height="7" fill="rgb(238,228,205)"/><text x="556" y="172" font-size="13.5" font-weight="600" fill="#3a322a" text-anchor="middle">알</text><text x="620" y="122" font-size="20" fill="#8a7d6b" text-anchor="middle">→</text><rect x="657" y="85" width="78" height="70" rx="14" fill="#fffdf8" stroke="#e7ddc9"/><rect x="689" y="107.5" width="7" height="7" fill="rgb(215,119,87)"/><rect x="696" y="107.5" width="7" height="7" fill="rgb(215,119,87)"/><rect x="682" y="114.5" width="7" height="7" fill="rgb(215,119,87)"/><rect x="689" y="114.5" width="7" height="7" fill="rgb(31,23,20)"/><rect x="696" y="114.5" width="7" height="7" fill="rgb(31,23,20)"/><rect x="703" y="114.5" width="7" height="7" fill="rgb(215,119,87)"/><rect x="689" y="121.5" width="7" height="7" fill="rgb(215,119,87)"/><rect x="696" y="121.5" width="7" height="7" fill="rgb(215,119,87)"/><text x="696" y="172" font-size="13.5" font-weight="600" fill="#3a322a" text-anchor="middle">아기도치</text><g stroke="#caa15a" stroke-width="4.5" stroke-linecap="round" fill="none"><path d="M696 180 V194"/><path d="M292 194 H1044"/><path d="M292 194 V208"/><path d="M668 194 V208"/><path d="M1044 194 V208"/></g><rect x="112" y="208" width="360" height="108" rx="18" fill="rgb(216,92,120)" opacity="0.14"/><rect x="253" y="227" width="78" height="70" rx="14" fill="#fffdf8" stroke="#e7ddc9"/><rect x="288.5" y="246" width="7" height="7" fill="rgb(36,29,24)"/><rect x="281.5" y="253" width="7" height="7" fill="rgb(215,119,87)"/><rect x="288.5" y="253" width="7" height="7" fill="rgb(215,119,87)"/><rect x="295.5" y="253" width="7" height="7" fill="rgb(215,119,87)"/><rect x="274.5" y="260" width="7" height="7" fill="rgb(215,119,87)"/><rect x="281.5" y="260" width="7" height="7" fill="rgb(31,23,20)"/><rect x="288.5" y="260" width="7" height="7" fill="rgb(215,119,87)"/><rect x="295.5" y="260" width="7" height="7" fill="rgb(31,23,20)"/><rect x="302.5" y="260" width="7" height="7" fill="rgb(215,119,87)"/><rect x="281.5" y="267" width="7" height="7" fill="rgb(215,119,87)"/><rect x="288.5" y="267" width="7" height="7" fill="rgb(215,119,87)"/><rect x="295.5" y="267" width="7" height="7" fill="rgb(215,119,87)"/><text x="292" y="314" font-size="13.5" font-weight="600" fill="#3a322a" text-anchor="middle">똘똘도치</text><text x="292" y="330" font-size="11.5" fill="#8a7d6b" text-anchor="middle">🧠 高</text><g stroke="rgb(216,92,120)" stroke-width="4.5" stroke-linecap="round" fill="none"><path d="M292 316 V338"/><path d="M198 338 H386"/><path d="M198 338 V360"/><path d="M386 338 V360"/></g><rect x="159" y="363" width="78" height="70" rx="14" fill="#fffdf8" stroke="#e7ddc9"/><rect x="187.5" y="378.5" width="7" height="7" fill="rgb(36,29,24)"/><rect x="194.5" y="378.5" width="7" height="7" fill="rgb(36,29,24)"/><rect x="201.5" y="378.5" width="7" height="7" fill="rgb(36,29,24)"/><rect x="187.5" y="385.5" width="7" height="7" fill="rgb(215,119,87)"/><rect x="194.5" y="385.5" width="7" height="7" fill="rgb(215,119,87)"/><rect x="201.5" y="385.5" width="7" height="7" fill="rgb(215,119,87)"/><rect x="180.5" y="392.5" width="7" height="7" fill="rgb(215,119,87)"/><rect x="187.5" y="392.5" width="7" height="7" fill="rgb(31,23,20)"/><rect x="194.5" y="392.5" width="7" height="7" fill="rgb(215,119,87)"/><rect x="201.5" y="392.5" width="7" height="7" fill="rgb(31,23,20)"/><rect x="208.5" y="392.5" width="7" height="7" fill="rgb(215,119,87)"/><rect x="180.5" y="399.5" width="7" height="7" fill="rgb(215,119,87)"/><rect x="187.5" y="399.5" width="7" height="7" fill="rgb(215,119,87)"/><rect x="194.5" y="399.5" width="7" height="7" fill="rgb(215,119,87)"/><rect x="201.5" y="399.5" width="7" height="7" fill="rgb(215,119,87)"/><rect x="208.5" y="399.5" width="7" height="7" fill="rgb(215,119,87)"/><rect x="187.5" y="406.5" width="7" height="7" fill="rgb(215,119,87)"/><rect x="201.5" y="406.5" width="7" height="7" fill="rgb(215,119,87)"/><text x="198" y="450" font-size="13.5" font-weight="600" fill="#3a322a" text-anchor="middle">근면도치</text><text x="198" y="466" font-size="11.5" fill="#8a7d6b" text-anchor="middle">⚡ 高</text><path d="M198 436 V498" stroke="rgb(216,92,120)" stroke-width="4.5" stroke-linecap="round"/><path d="M198 574 V636" stroke="rgb(216,92,120)" stroke-width="4.5" stroke-linecap="round"/><rect x="159" y="501" width="78" height="70" rx="14" fill="#fffdf8" stroke="#e7ddc9"/><text x="225" y="517" font-size="15" text-anchor="middle">👑</text><rect x="173.5" y="513" width="7" height="7" fill="rgb(232,192,92)"/><rect x="187.5" y="513" width="7" height="7" fill="rgb(232,192,92)"/><rect x="201.5" y="513" width="7" height="7" fill="rgb(232,192,92)"/><rect x="215.5" y="513" width="7" height="7" fill="rgb(232,192,92)"/><rect x="180.5" y="520" width="7" height="7" fill="rgb(232,192,92)"/><rect x="187.5" y="520" width="7" height="7" fill="rgb(232,192,92)"/><rect x="194.5" y="520" width="7" height="7" fill="rgb(232,192,92)"/><rect x="201.5" y="520" width="7" height="7" fill="rgb(232,192,92)"/><rect x="208.5" y="520" width="7" height="7" fill="rgb(232,192,92)"/><rect x="173.5" y="527" width="7" height="7" fill="rgb(232,192,92)"/><rect x="180.5" y="527" width="7" height="7" fill="rgb(31,23,20)"/><rect x="187.5" y="527" width="7" height="7" fill="rgb(232,192,92)"/><rect x="194.5" y="527" width="7" height="7" fill="rgb(232,192,92)"/><rect x="201.5" y="527" width="7" height="7" fill="rgb(232,192,92)"/><rect x="208.5" y="527" width="7" height="7" fill="rgb(31,23,20)"/><rect x="215.5" y="527" width="7" height="7" fill="rgb(232,192,92)"/><rect x="173.5" y="534" width="7" height="7" fill="rgb(232,192,92)"/><rect x="180.5" y="534" width="7" height="7" fill="rgb(232,192,92)"/><rect x="187.5" y="534" width="7" height="7" fill="rgb(232,192,92)"/><rect x="194.5" y="534" width="7" height="7" fill="rgb(232,192,92)"/><rect x="201.5" y="534" width="7" height="7" fill="rgb(232,192,92)"/><rect x="208.5" y="534" width="7" height="7" fill="rgb(232,192,92)"/><rect x="215.5" y="534" width="7" height="7" fill="rgb(232,192,92)"/><rect x="173.5" y="541" width="7" height="7" fill="rgb(232,192,92)"/><rect x="180.5" y="541" width="7" height="7" fill="rgb(232,192,92)"/><rect x="194.5" y="541" width="7" height="7" fill="rgb(36,29,24)"/><rect x="208.5" y="541" width="7" height="7" fill="rgb(232,192,92)"/><rect x="215.5" y="541" width="7" height="7" fill="rgb(232,192,92)"/><rect x="180.5" y="548" width="7" height="7" fill="rgb(232,192,92)"/><rect x="208.5" y="548" width="7" height="7" fill="rgb(232,192,92)"/><text x="198" y="588" font-size="13.5" font-weight="600" fill="#3a322a" text-anchor="middle">마스터도치 <tspan fill="#e8c15c" font-weight="700">S급</tspan></text><rect x="159" y="639" width="78" height="70" rx="14" fill="#fffdf8" stroke="#e7ddc9"/><rect x="194.5" y="651" width="7" height="7" fill="rgb(36,29,24)"/><rect x="180.5" y="658" width="7" height="7" fill="rgb(90,185,175)"/><rect x="187.5" y="658" width="7" height="7" fill="rgb(90,185,175)"/><rect x="194.5" y="658" width="7" height="7" fill="rgb(90,185,175)"/><rect x="201.5" y="658" width="7" height="7" fill="rgb(90,185,175)"/><rect x="208.5" y="658" width="7" height="7" fill="rgb(90,185,175)"/><rect x="173.5" y="665" width="7" height="7" fill="rgb(90,185,175)"/><rect x="180.5" y="665" width="7" height="7" fill="rgb(31,23,20)"/><rect x="187.5" y="665" width="7" height="7" fill="rgb(31,23,20)"/><rect x="194.5" y="665" width="7" height="7" fill="rgb(90,185,175)"/><rect x="201.5" y="665" width="7" height="7" fill="rgb(31,23,20)"/><rect x="208.5" y="665" width="7" height="7" fill="rgb(31,23,20)"/><rect x="215.5" y="665" width="7" height="7" fill="rgb(90,185,175)"/><rect x="173.5" y="672" width="7" height="7" fill="rgb(90,185,175)"/><rect x="180.5" y="672" width="7" height="7" fill="rgb(90,185,175)"/><rect x="187.5" y="672" width="7" height="7" fill="rgb(90,185,175)"/><rect x="194.5" y="672" width="7" height="7" fill="rgb(90,185,175)"/><rect x="201.5" y="672" width="7" height="7" fill="rgb(90,185,175)"/><rect x="208.5" y="672" width="7" height="7" fill="rgb(90,185,175)"/><rect x="215.5" y="672" width="7" height="7" fill="rgb(90,185,175)"/><rect x="173.5" y="679" width="7" height="7" fill="rgb(90,185,175)"/><rect x="180.5" y="679" width="7" height="7" fill="rgb(90,185,175)"/><rect x="194.5" y="679" width="7" height="7" fill="rgb(36,29,24)"/><rect x="208.5" y="679" width="7" height="7" fill="rgb(90,185,175)"/><rect x="215.5" y="679" width="7" height="7" fill="rgb(90,185,175)"/><rect x="180.5" y="686" width="7" height="7" fill="rgb(90,185,175)"/><rect x="208.5" y="686" width="7" height="7" fill="rgb(90,185,175)"/><text x="198" y="726" font-size="13.5" font-weight="600" fill="#3a322a" text-anchor="middle">너드도치 <tspan fill="#9fd3a0" font-weight="700">A급</tspan></text><rect x="347" y="363" width="78" height="70" rx="14" fill="#fffdf8" stroke="#e7ddc9"/><rect x="389.5" y="378.5" width="7" height="7" fill="rgb(215,119,87)"/><rect x="375.5" y="385.5" width="7" height="7" fill="rgb(215,119,87)"/><rect x="382.5" y="385.5" width="7" height="7" fill="rgb(215,119,87)"/><rect x="389.5" y="385.5" width="7" height="7" fill="rgb(215,119,87)"/><rect x="368.5" y="392.5" width="7" height="7" fill="rgb(215,119,87)"/><rect x="375.5" y="392.5" width="7" height="7" fill="rgb(31,23,20)"/><rect x="382.5" y="392.5" width="7" height="7" fill="rgb(215,119,87)"/><rect x="389.5" y="392.5" width="7" height="7" fill="rgb(31,23,20)"/><rect x="396.5" y="392.5" width="7" height="7" fill="rgb(215,119,87)"/><rect x="368.5" y="399.5" width="7" height="7" fill="rgb(215,119,87)"/><rect x="375.5" y="399.5" width="7" height="7" fill="rgb(215,119,87)"/><rect x="382.5" y="399.5" width="7" height="7" fill="rgb(215,119,87)"/><rect x="389.5" y="399.5" width="7" height="7" fill="rgb(215,119,87)"/><rect x="396.5" y="399.5" width="7" height="7" fill="rgb(215,119,87)"/><rect x="375.5" y="406.5" width="7" height="7" fill="rgb(215,119,87)"/><rect x="389.5" y="406.5" width="7" height="7" fill="rgb(215,119,87)"/><text x="386" y="450" font-size="13.5" font-weight="600" fill="#3a322a" text-anchor="middle">여유도치</text><text x="386" y="466" font-size="11.5" fill="#8a7d6b" text-anchor="middle">⚡ 低</text><path d="M386 436 V498" stroke="rgb(216,92,120)" stroke-width="4.5" stroke-linecap="round"/><path d="M386 574 V636" stroke="rgb(216,92,120)" stroke-width="4.5" stroke-linecap="round"/><rect x="347" y="501" width="78" height="70" rx="14" fill="#fffdf8" stroke="#e7ddc9"/><rect x="368.5" y="513" width="7" height="7" fill="rgb(92,150,225)"/><rect x="375.5" y="513" width="7" height="7" fill="rgb(92,150,225)"/><rect x="382.5" y="513" width="7" height="7" fill="rgb(92,150,225)"/><rect x="389.5" y="513" width="7" height="7" fill="rgb(92,150,225)"/><rect x="396.5" y="513" width="7" height="7" fill="rgb(92,150,225)"/><rect x="361.5" y="520" width="7" height="7" fill="rgb(92,150,225)"/><rect x="368.5" y="520" width="7" height="7" fill="rgb(92,150,225)"/><rect x="375.5" y="520" width="7" height="7" fill="rgb(92,150,225)"/><rect x="382.5" y="520" width="7" height="7" fill="rgb(92,150,225)"/><rect x="389.5" y="520" width="7" height="7" fill="rgb(92,150,225)"/><rect x="396.5" y="520" width="7" height="7" fill="rgb(92,150,225)"/><rect x="403.5" y="520" width="7" height="7" fill="rgb(92,150,225)"/><rect x="361.5" y="527" width="7" height="7" fill="rgb(92,150,225)"/><rect x="368.5" y="527" width="7" height="7" fill="rgb(36,29,24)"/><rect x="375.5" y="527" width="7" height="7" fill="rgb(92,150,225)"/><rect x="382.5" y="527" width="7" height="7" fill="rgb(92,150,225)"/><rect x="389.5" y="527" width="7" height="7" fill="rgb(92,150,225)"/><rect x="396.5" y="527" width="7" height="7" fill="rgb(36,29,24)"/><rect x="403.5" y="527" width="7" height="7" fill="rgb(92,150,225)"/><rect x="361.5" y="534" width="7" height="7" fill="rgb(92,150,225)"/><rect x="368.5" y="534" width="7" height="7" fill="rgb(92,150,225)"/><rect x="375.5" y="534" width="7" height="7" fill="rgb(92,150,225)"/><rect x="382.5" y="534" width="7" height="7" fill="rgb(92,150,225)"/><rect x="389.5" y="534" width="7" height="7" fill="rgb(92,150,225)"/><rect x="396.5" y="534" width="7" height="7" fill="rgb(92,150,225)"/><rect x="403.5" y="534" width="7" height="7" fill="rgb(92,150,225)"/><rect x="361.5" y="541" width="7" height="7" fill="rgb(92,150,225)"/><rect x="368.5" y="541" width="7" height="7" fill="rgb(92,150,225)"/><rect x="382.5" y="541" width="7" height="7" fill="rgb(36,29,24)"/><rect x="396.5" y="541" width="7" height="7" fill="rgb(92,150,225)"/><rect x="403.5" y="541" width="7" height="7" fill="rgb(92,150,225)"/><rect x="368.5" y="548" width="7" height="7" fill="rgb(92,150,225)"/><rect x="396.5" y="548" width="7" height="7" fill="rgb(92,150,225)"/><text x="386" y="588" font-size="13.5" font-weight="600" fill="#3a322a" text-anchor="middle">프로도치 <tspan fill="#9fd3a0" font-weight="700">A급</tspan></text><rect x="347" y="639" width="78" height="70" rx="14" fill="#fffdf8" stroke="#e7ddc9"/><rect x="361.5" y="651" width="7" height="7" fill="rgb(150,120,195)"/><rect x="368.5" y="651" width="7" height="7" fill="rgb(150,120,195)"/><rect x="382.5" y="651" width="7" height="7" fill="rgb(150,120,195)"/><rect x="396.5" y="651" width="7" height="7" fill="rgb(150,120,195)"/><rect x="403.5" y="651" width="7" height="7" fill="rgb(150,120,195)"/><rect x="368.5" y="658" width="7" height="7" fill="rgb(150,120,195)"/><rect x="375.5" y="658" width="7" height="7" fill="rgb(150,120,195)"/><rect x="382.5" y="658" width="7" height="7" fill="rgb(150,120,195)"/><rect x="389.5" y="658" width="7" height="7" fill="rgb(150,120,195)"/><rect x="396.5" y="658" width="7" height="7" fill="rgb(150,120,195)"/><rect x="361.5" y="665" width="7" height="7" fill="rgb(150,120,195)"/><rect x="368.5" y="665" width="7" height="7" fill="rgb(31,23,20)"/><rect x="375.5" y="665" width="7" height="7" fill="rgb(150,120,195)"/><rect x="382.5" y="665" width="7" height="7" fill="rgb(150,120,195)"/><rect x="389.5" y="665" width="7" height="7" fill="rgb(150,120,195)"/><rect x="396.5" y="665" width="7" height="7" fill="rgb(31,23,20)"/><rect x="403.5" y="665" width="7" height="7" fill="rgb(150,120,195)"/><rect x="361.5" y="672" width="7" height="7" fill="rgb(150,120,195)"/><rect x="368.5" y="672" width="7" height="7" fill="rgb(36,29,24)"/><rect x="375.5" y="672" width="7" height="7" fill="rgb(150,120,195)"/><rect x="389.5" y="672" width="7" height="7" fill="rgb(150,120,195)"/><rect x="396.5" y="672" width="7" height="7" fill="rgb(36,29,24)"/><rect x="403.5" y="672" width="7" height="7" fill="rgb(150,120,195)"/><rect x="361.5" y="679" width="7" height="7" fill="rgb(150,120,195)"/><rect x="368.5" y="679" width="7" height="7" fill="rgb(150,120,195)"/><rect x="375.5" y="679" width="7" height="7" fill="rgb(150,120,195)"/><rect x="389.5" y="679" width="7" height="7" fill="rgb(150,120,195)"/><rect x="396.5" y="679" width="7" height="7" fill="rgb(150,120,195)"/><rect x="403.5" y="679" width="7" height="7" fill="rgb(150,120,195)"/><rect x="368.5" y="686" width="7" height="7" fill="rgb(150,120,195)"/><rect x="396.5" y="686" width="7" height="7" fill="rgb(150,120,195)"/><text x="386" y="726" font-size="13.5" font-weight="600" fill="#3a322a" text-anchor="middle">방구석도치 <tspan fill="#8fc1e3" font-weight="700">B급</tspan></text><rect x="488" y="208" width="360" height="108" rx="18" fill="rgb(56,166,176)" opacity="0.14"/><rect x="629" y="227" width="78" height="70" rx="14" fill="#fffdf8" stroke="#e7ddc9"/><rect x="657.5" y="249.5" width="7" height="7" fill="rgb(215,119,87)"/><rect x="664.5" y="249.5" width="7" height="7" fill="rgb(215,119,87)"/><rect x="671.5" y="249.5" width="7" height="7" fill="rgb(215,119,87)"/><rect x="650.5" y="256.5" width="7" height="7" fill="rgb(215,119,87)"/><rect x="657.5" y="256.5" width="7" height="7" fill="rgb(31,23,20)"/><rect x="664.5" y="256.5" width="7" height="7" fill="rgb(215,119,87)"/><rect x="671.5" y="256.5" width="7" height="7" fill="rgb(31,23,20)"/><rect x="678.5" y="256.5" width="7" height="7" fill="rgb(215,119,87)"/><rect x="657.5" y="263.5" width="7" height="7" fill="rgb(215,119,87)"/><rect x="664.5" y="263.5" width="7" height="7" fill="rgb(215,119,87)"/><rect x="671.5" y="263.5" width="7" height="7" fill="rgb(215,119,87)"/><text x="668" y="314" font-size="13.5" font-weight="600" fill="#3a322a" text-anchor="middle">평범도치</text><text x="668" y="330" font-size="11.5" fill="#8a7d6b" text-anchor="middle">🧠 중</text><g stroke="rgb(56,166,176)" stroke-width="4.5" stroke-linecap="round" fill="none"><path d="M668 316 V338"/><path d="M574 338 H762"/><path d="M574 338 V360"/><path d="M762 338 V360"/></g><rect x="535" y="363" width="78" height="70" rx="14" fill="#fffdf8" stroke="#e7ddc9"/><rect x="570.5" y="378.5" width="7" height="7" fill="rgb(215,119,87)"/><rect x="563.5" y="385.5" width="7" height="7" fill="rgb(215,119,87)"/><rect x="570.5" y="385.5" width="7" height="7" fill="rgb(215,119,87)"/><rect x="577.5" y="385.5" width="7" height="7" fill="rgb(215,119,87)"/><rect x="556.5" y="392.5" width="7" height="7" fill="rgb(215,119,87)"/><rect x="563.5" y="392.5" width="7" height="7" fill="rgb(31,23,20)"/><rect x="570.5" y="392.5" width="7" height="7" fill="rgb(215,119,87)"/><rect x="577.5" y="392.5" width="7" height="7" fill="rgb(31,23,20)"/><rect x="584.5" y="392.5" width="7" height="7" fill="rgb(215,119,87)"/><rect x="556.5" y="399.5" width="7" height="7" fill="rgb(215,119,87)"/><rect x="563.5" y="399.5" width="7" height="7" fill="rgb(215,119,87)"/><rect x="570.5" y="399.5" width="7" height="7" fill="rgb(215,119,87)"/><rect x="577.5" y="399.5" width="7" height="7" fill="rgb(215,119,87)"/><rect x="584.5" y="399.5" width="7" height="7" fill="rgb(215,119,87)"/><rect x="563.5" y="406.5" width="7" height="7" fill="rgb(215,119,87)"/><rect x="577.5" y="406.5" width="7" height="7" fill="rgb(215,119,87)"/><text x="574" y="450" font-size="13.5" font-weight="600" fill="#3a322a" text-anchor="middle">성실도치</text><text x="574" y="466" font-size="11.5" fill="#8a7d6b" text-anchor="middle">⚡ 高</text><path d="M574 436 V498" stroke="rgb(56,166,176)" stroke-width="4.5" stroke-linecap="round"/><path d="M574 574 V636" stroke="rgb(56,166,176)" stroke-width="4.5" stroke-linecap="round"/><rect x="535" y="501" width="78" height="70" rx="14" fill="#fffdf8" stroke="#e7ddc9"/><rect x="563.5" y="513" width="7" height="7" fill="rgb(120,195,120)"/><rect x="570.5" y="513" width="7" height="7" fill="rgb(120,195,120)"/><rect x="577.5" y="513" width="7" height="7" fill="rgb(120,195,120)"/><rect x="556.5" y="520" width="7" height="7" fill="rgb(120,195,120)"/><rect x="563.5" y="520" width="7" height="7" fill="rgb(120,195,120)"/><rect x="570.5" y="520" width="7" height="7" fill="rgb(120,195,120)"/><rect x="577.5" y="520" width="7" height="7" fill="rgb(120,195,120)"/><rect x="584.5" y="520" width="7" height="7" fill="rgb(120,195,120)"/><rect x="549.5" y="527" width="7" height="7" fill="rgb(120,195,120)"/><rect x="556.5" y="527" width="7" height="7" fill="rgb(31,23,20)"/><rect x="563.5" y="527" width="7" height="7" fill="rgb(120,195,120)"/><rect x="570.5" y="527" width="7" height="7" fill="rgb(120,195,120)"/><rect x="577.5" y="527" width="7" height="7" fill="rgb(120,195,120)"/><rect x="584.5" y="527" width="7" height="7" fill="rgb(31,23,20)"/><rect x="591.5" y="527" width="7" height="7" fill="rgb(120,195,120)"/><rect x="549.5" y="534" width="7" height="7" fill="rgb(120,195,120)"/><rect x="556.5" y="534" width="7" height="7" fill="rgb(120,195,120)"/><rect x="563.5" y="534" width="7" height="7" fill="rgb(120,195,120)"/><rect x="570.5" y="534" width="7" height="7" fill="rgb(120,195,120)"/><rect x="577.5" y="534" width="7" height="7" fill="rgb(120,195,120)"/><rect x="584.5" y="534" width="7" height="7" fill="rgb(120,195,120)"/><rect x="591.5" y="534" width="7" height="7" fill="rgb(120,195,120)"/><rect x="549.5" y="541" width="7" height="7" fill="rgb(120,195,120)"/><rect x="556.5" y="541" width="7" height="7" fill="rgb(120,195,120)"/><rect x="570.5" y="541" width="7" height="7" fill="rgb(36,29,24)"/><rect x="584.5" y="541" width="7" height="7" fill="rgb(120,195,120)"/><rect x="591.5" y="541" width="7" height="7" fill="rgb(120,195,120)"/><rect x="556.5" y="548" width="7" height="7" fill="rgb(120,195,120)"/><rect x="584.5" y="548" width="7" height="7" fill="rgb(120,195,120)"/><text x="574" y="588" font-size="13.5" font-weight="600" fill="#3a322a" text-anchor="middle">모범도치 <tspan fill="#8fc1e3" font-weight="700">B급</tspan></text><rect x="535" y="639" width="78" height="70" rx="14" fill="#fffdf8" stroke="#e7ddc9"/><rect x="556.5" y="651" width="7" height="7" fill="rgb(207,138,114)"/><rect x="563.5" y="651" width="7" height="7" fill="rgb(207,138,114)"/><rect x="570.5" y="651" width="7" height="7" fill="rgb(207,138,114)"/><rect x="577.5" y="651" width="7" height="7" fill="rgb(207,138,114)"/><rect x="584.5" y="651" width="7" height="7" fill="rgb(207,138,114)"/><rect x="549.5" y="658" width="7" height="7" fill="rgb(207,138,114)"/><rect x="556.5" y="658" width="7" height="7" fill="rgb(207,138,114)"/><rect x="563.5" y="658" width="7" height="7" fill="rgb(207,138,114)"/><rect x="570.5" y="658" width="7" height="7" fill="rgb(207,138,114)"/><rect x="577.5" y="658" width="7" height="7" fill="rgb(207,138,114)"/><rect x="584.5" y="658" width="7" height="7" fill="rgb(207,138,114)"/><rect x="591.5" y="658" width="7" height="7" fill="rgb(207,138,114)"/><rect x="549.5" y="665" width="7" height="7" fill="rgb(207,138,114)"/><rect x="556.5" y="665" width="7" height="7" fill="rgb(31,23,20)"/><rect x="563.5" y="665" width="7" height="7" fill="rgb(207,138,114)"/><rect x="570.5" y="665" width="7" height="7" fill="rgb(207,138,114)"/><rect x="577.5" y="665" width="7" height="7" fill="rgb(207,138,114)"/><rect x="584.5" y="665" width="7" height="7" fill="rgb(31,23,20)"/><rect x="591.5" y="665" width="7" height="7" fill="rgb(207,138,114)"/><rect x="549.5" y="672" width="7" height="7" fill="rgb(207,138,114)"/><rect x="556.5" y="672" width="7" height="7" fill="rgb(207,138,114)"/><rect x="563.5" y="672" width="7" height="7" fill="rgb(207,138,114)"/><rect x="570.5" y="672" width="7" height="7" fill="rgb(207,138,114)"/><rect x="577.5" y="672" width="7" height="7" fill="rgb(207,138,114)"/><rect x="584.5" y="672" width="7" height="7" fill="rgb(207,138,114)"/><rect x="591.5" y="672" width="7" height="7" fill="rgb(207,138,114)"/><rect x="549.5" y="679" width="7" height="7" fill="rgb(207,138,114)"/><rect x="556.5" y="679" width="7" height="7" fill="rgb(36,29,24)"/><rect x="563.5" y="679" width="7" height="7" fill="rgb(174,184,106)"/><rect x="570.5" y="679" width="7" height="7" fill="rgb(174,184,106)"/><rect x="577.5" y="679" width="7" height="7" fill="rgb(174,184,106)"/><rect x="584.5" y="679" width="7" height="7" fill="rgb(36,29,24)"/><rect x="591.5" y="679" width="7" height="7" fill="rgb(207,138,114)"/><rect x="556.5" y="686" width="7" height="7" fill="rgb(207,138,114)"/><rect x="584.5" y="686" width="7" height="7" fill="rgb(207,138,114)"/><text x="574" y="726" font-size="13.5" font-weight="600" fill="#3a322a" text-anchor="middle">먹보도치 <tspan fill="#d9c79a" font-weight="700">C급</tspan></text><rect x="723" y="363" width="78" height="70" rx="14" fill="#fffdf8" stroke="#e7ddc9"/><rect x="751.5" y="378.5" width="7" height="7" fill="rgb(215,119,87)"/><rect x="751.5" y="385.5" width="7" height="7" fill="rgb(215,119,87)"/><rect x="758.5" y="385.5" width="7" height="7" fill="rgb(215,119,87)"/><rect x="765.5" y="385.5" width="7" height="7" fill="rgb(215,119,87)"/><rect x="744.5" y="392.5" width="7" height="7" fill="rgb(215,119,87)"/><rect x="751.5" y="392.5" width="7" height="7" fill="rgb(31,23,20)"/><rect x="758.5" y="392.5" width="7" height="7" fill="rgb(215,119,87)"/><rect x="765.5" y="392.5" width="7" height="7" fill="rgb(31,23,20)"/><rect x="772.5" y="392.5" width="7" height="7" fill="rgb(215,119,87)"/><rect x="744.5" y="399.5" width="7" height="7" fill="rgb(215,119,87)"/><rect x="751.5" y="399.5" width="7" height="7" fill="rgb(215,119,87)"/><rect x="758.5" y="399.5" width="7" height="7" fill="rgb(215,119,87)"/><rect x="765.5" y="399.5" width="7" height="7" fill="rgb(215,119,87)"/><rect x="772.5" y="399.5" width="7" height="7" fill="rgb(215,119,87)"/><rect x="751.5" y="406.5" width="7" height="7" fill="rgb(215,119,87)"/><rect x="765.5" y="406.5" width="7" height="7" fill="rgb(215,119,87)"/><text x="762" y="450" font-size="13.5" font-weight="600" fill="#3a322a" text-anchor="middle">느긋도치</text><text x="762" y="466" font-size="11.5" fill="#8a7d6b" text-anchor="middle">⚡ 低</text><path d="M762 436 V498" stroke="rgb(56,166,176)" stroke-width="4.5" stroke-linecap="round"/><path d="M762 574 V636" stroke="rgb(56,166,176)" stroke-width="4.5" stroke-linecap="round"/><rect x="723" y="501" width="78" height="70" rx="14" fill="#fffdf8" stroke="#e7ddc9"/><rect x="737.5" y="513" width="7" height="7" fill="rgb(169,154,176)"/><rect x="779.5" y="513" width="7" height="7" fill="rgb(169,154,176)"/><rect x="737.5" y="520" width="7" height="7" fill="rgb(169,154,176)"/><rect x="744.5" y="520" width="7" height="7" fill="rgb(169,154,176)"/><rect x="772.5" y="520" width="7" height="7" fill="rgb(169,154,176)"/><rect x="779.5" y="520" width="7" height="7" fill="rgb(169,154,176)"/><rect x="744.5" y="527" width="7" height="7" fill="rgb(169,154,176)"/><rect x="751.5" y="527" width="7" height="7" fill="rgb(169,154,176)"/><rect x="758.5" y="527" width="7" height="7" fill="rgb(169,154,176)"/><rect x="765.5" y="527" width="7" height="7" fill="rgb(169,154,176)"/><rect x="772.5" y="527" width="7" height="7" fill="rgb(169,154,176)"/><rect x="737.5" y="534" width="7" height="7" fill="rgb(169,154,176)"/><rect x="744.5" y="534" width="7" height="7" fill="rgb(31,23,20)"/><rect x="751.5" y="534" width="7" height="7" fill="rgb(169,154,176)"/><rect x="758.5" y="534" width="7" height="7" fill="rgb(169,154,176)"/><rect x="765.5" y="534" width="7" height="7" fill="rgb(169,154,176)"/><rect x="772.5" y="534" width="7" height="7" fill="rgb(31,23,20)"/><rect x="779.5" y="534" width="7" height="7" fill="rgb(169,154,176)"/><rect x="737.5" y="541" width="7" height="7" fill="rgb(169,154,176)"/><rect x="744.5" y="541" width="7" height="7" fill="rgb(169,154,176)"/><rect x="758.5" y="541" width="7" height="7" fill="rgb(36,29,24)"/><rect x="772.5" y="541" width="7" height="7" fill="rgb(169,154,176)"/><rect x="779.5" y="541" width="7" height="7" fill="rgb(169,154,176)"/><rect x="744.5" y="548" width="7" height="7" fill="rgb(169,154,176)"/><rect x="772.5" y="548" width="7" height="7" fill="rgb(169,154,176)"/><text x="762" y="588" font-size="13.5" font-weight="600" fill="#3a322a" text-anchor="middle">마페도치 <tspan fill="#d9c79a" font-weight="700">C급</tspan></text><rect x="723" y="639" width="78" height="70" rx="14" fill="#fffdf8" stroke="#e7ddc9"/><rect x="751.5" y="651" width="7" height="7" fill="rgb(155,155,155)"/><rect x="758.5" y="651" width="7" height="7" fill="rgb(155,155,155)"/><rect x="765.5" y="651" width="7" height="7" fill="rgb(155,155,155)"/><rect x="744.5" y="658" width="7" height="7" fill="rgb(155,155,155)"/><rect x="751.5" y="658" width="7" height="7" fill="rgb(155,155,155)"/><rect x="758.5" y="658" width="7" height="7" fill="rgb(155,155,155)"/><rect x="765.5" y="658" width="7" height="7" fill="rgb(155,155,155)"/><rect x="772.5" y="658" width="7" height="7" fill="rgb(155,155,155)"/><rect x="737.5" y="665" width="7" height="7" fill="rgb(155,155,155)"/><rect x="744.5" y="665" width="7" height="7" fill="rgb(31,23,20)"/><rect x="751.5" y="665" width="7" height="7" fill="rgb(155,155,155)"/><rect x="758.5" y="665" width="7" height="7" fill="rgb(155,155,155)"/><rect x="765.5" y="665" width="7" height="7" fill="rgb(155,155,155)"/><rect x="772.5" y="665" width="7" height="7" fill="rgb(31,23,20)"/><rect x="779.5" y="665" width="7" height="7" fill="rgb(155,155,155)"/><rect x="737.5" y="672" width="7" height="7" fill="rgb(155,155,155)"/><rect x="744.5" y="672" width="7" height="7" fill="rgb(36,29,24)"/><rect x="751.5" y="672" width="7" height="7" fill="rgb(155,155,155)"/><rect x="758.5" y="672" width="7" height="7" fill="rgb(155,155,155)"/><rect x="765.5" y="672" width="7" height="7" fill="rgb(155,155,155)"/><rect x="772.5" y="672" width="7" height="7" fill="rgb(36,29,24)"/><rect x="779.5" y="672" width="7" height="7" fill="rgb(155,155,155)"/><rect x="737.5" y="679" width="7" height="7" fill="rgb(155,155,155)"/><rect x="744.5" y="679" width="7" height="7" fill="rgb(155,155,155)"/><rect x="758.5" y="679" width="7" height="7" fill="rgb(174,184,106)"/><rect x="772.5" y="679" width="7" height="7" fill="rgb(155,155,155)"/><rect x="779.5" y="679" width="7" height="7" fill="rgb(155,155,155)"/><rect x="744.5" y="686" width="7" height="7" fill="rgb(155,155,155)"/><rect x="772.5" y="686" width="7" height="7" fill="rgb(155,155,155)"/><text x="762" y="726" font-size="13.5" font-weight="600" fill="#3a322a" text-anchor="middle">게으른도치 <tspan fill="#d9c79a" font-weight="700">C급</tspan></text><rect x="864" y="208" width="360" height="108" rx="18" fill="rgb(150,112,200)" opacity="0.14"/><rect x="1005" y="227" width="78" height="70" rx="14" fill="#fffdf8" stroke="#e7ddc9"/><rect x="1026.5" y="246" width="7" height="7" fill="rgb(215,119,87)"/><rect x="1054.5" y="246" width="7" height="7" fill="rgb(215,119,87)"/><rect x="1033.5" y="253" width="7" height="7" fill="rgb(215,119,87)"/><rect x="1040.5" y="253" width="7" height="7" fill="rgb(215,119,87)"/><rect x="1047.5" y="253" width="7" height="7" fill="rgb(215,119,87)"/><rect x="1026.5" y="260" width="7" height="7" fill="rgb(215,119,87)"/><rect x="1033.5" y="260" width="7" height="7" fill="rgb(31,23,20)"/><rect x="1040.5" y="260" width="7" height="7" fill="rgb(215,119,87)"/><rect x="1047.5" y="260" width="7" height="7" fill="rgb(31,23,20)"/><rect x="1054.5" y="260" width="7" height="7" fill="rgb(215,119,87)"/><rect x="1033.5" y="267" width="7" height="7" fill="rgb(215,119,87)"/><rect x="1040.5" y="267" width="7" height="7" fill="rgb(215,119,87)"/><rect x="1047.5" y="267" width="7" height="7" fill="rgb(215,119,87)"/><text x="1044" y="314" font-size="13.5" font-weight="600" fill="#3a322a" text-anchor="middle">말썽도치</text><text x="1044" y="330" font-size="11.5" fill="#8a7d6b" text-anchor="middle">🧠 低</text><g stroke="rgb(150,112,200)" stroke-width="4.5" stroke-linecap="round" fill="none"><path d="M1044 316 V338"/><path d="M950 338 H1138"/><path d="M950 338 V360"/><path d="M1138 338 V360"/></g><rect x="911" y="363" width="78" height="70" rx="14" fill="#fffdf8" stroke="#e7ddc9"/><rect x="932.5" y="378.5" width="7" height="7" fill="rgb(215,119,87)"/><rect x="946.5" y="378.5" width="7" height="7" fill="rgb(215,119,87)"/><rect x="960.5" y="378.5" width="7" height="7" fill="rgb(215,119,87)"/><rect x="939.5" y="385.5" width="7" height="7" fill="rgb(215,119,87)"/><rect x="946.5" y="385.5" width="7" height="7" fill="rgb(215,119,87)"/><rect x="953.5" y="385.5" width="7" height="7" fill="rgb(215,119,87)"/><rect x="932.5" y="392.5" width="7" height="7" fill="rgb(215,119,87)"/><rect x="939.5" y="392.5" width="7" height="7" fill="rgb(31,23,20)"/><rect x="946.5" y="392.5" width="7" height="7" fill="rgb(215,119,87)"/><rect x="953.5" y="392.5" width="7" height="7" fill="rgb(31,23,20)"/><rect x="960.5" y="392.5" width="7" height="7" fill="rgb(215,119,87)"/><rect x="932.5" y="399.5" width="7" height="7" fill="rgb(215,119,87)"/><rect x="939.5" y="399.5" width="7" height="7" fill="rgb(215,119,87)"/><rect x="946.5" y="399.5" width="7" height="7" fill="rgb(215,119,87)"/><rect x="953.5" y="399.5" width="7" height="7" fill="rgb(215,119,87)"/><rect x="960.5" y="399.5" width="7" height="7" fill="rgb(215,119,87)"/><rect x="939.5" y="406.5" width="7" height="7" fill="rgb(215,119,87)"/><rect x="953.5" y="406.5" width="7" height="7" fill="rgb(215,119,87)"/><text x="950" y="450" font-size="13.5" font-weight="600" fill="#3a322a" text-anchor="middle">부산도치</text><text x="950" y="466" font-size="11.5" fill="#8a7d6b" text-anchor="middle">⚡ 高</text><path d="M950 436 V498" stroke="rgb(150,112,200)" stroke-width="4.5" stroke-linecap="round"/><path d="M950 574 V636" stroke="rgb(150,112,200)" stroke-width="4.5" stroke-linecap="round"/><rect x="911" y="501" width="78" height="70" rx="14" fill="#fffdf8" stroke="#e7ddc9"/><rect x="939.5" y="513" width="7" height="7" fill="rgb(176,102,153)"/><rect x="946.5" y="513" width="7" height="7" fill="rgb(36,29,24)"/><rect x="953.5" y="513" width="7" height="7" fill="rgb(176,102,153)"/><rect x="932.5" y="520" width="7" height="7" fill="rgb(176,102,153)"/><rect x="939.5" y="520" width="7" height="7" fill="rgb(176,102,153)"/><rect x="946.5" y="520" width="7" height="7" fill="rgb(176,102,153)"/><rect x="953.5" y="520" width="7" height="7" fill="rgb(176,102,153)"/><rect x="960.5" y="520" width="7" height="7" fill="rgb(176,102,153)"/><rect x="925.5" y="527" width="7" height="7" fill="rgb(176,102,153)"/><rect x="932.5" y="527" width="7" height="7" fill="rgb(31,23,20)"/><rect x="946.5" y="527" width="7" height="7" fill="rgb(176,102,153)"/><rect x="960.5" y="527" width="7" height="7" fill="rgb(31,23,20)"/><rect x="967.5" y="527" width="7" height="7" fill="rgb(176,102,153)"/><rect x="925.5" y="534" width="7" height="7" fill="rgb(176,102,153)"/><rect x="932.5" y="534" width="7" height="7" fill="rgb(176,102,153)"/><rect x="939.5" y="534" width="7" height="7" fill="rgb(176,102,153)"/><rect x="946.5" y="534" width="7" height="7" fill="rgb(215,80,70)"/><rect x="953.5" y="534" width="7" height="7" fill="rgb(176,102,153)"/><rect x="960.5" y="534" width="7" height="7" fill="rgb(176,102,153)"/><rect x="967.5" y="534" width="7" height="7" fill="rgb(176,102,153)"/><rect x="925.5" y="541" width="7" height="7" fill="rgb(176,102,153)"/><rect x="932.5" y="541" width="7" height="7" fill="rgb(36,29,24)"/><rect x="946.5" y="541" width="7" height="7" fill="rgb(36,29,24)"/><rect x="953.5" y="541" width="7" height="7" fill="rgb(36,29,24)"/><rect x="960.5" y="541" width="7" height="7" fill="rgb(176,102,153)"/><rect x="932.5" y="548" width="7" height="7" fill="rgb(176,102,153)"/><rect x="960.5" y="548" width="7" height="7" fill="rgb(176,102,153)"/><text x="950" y="588" font-size="13.5" font-weight="600" fill="#3a322a" text-anchor="middle">삐에로도치 <tspan fill="#e0a07f" font-weight="700">D급</tspan></text><rect x="911" y="639" width="78" height="70" rx="14" fill="#fffdf8" stroke="#e7ddc9"/><rect x="925.5" y="651" width="7" height="7" fill="rgb(194,72,63)"/><rect x="967.5" y="651" width="7" height="7" fill="rgb(194,72,63)"/><rect x="925.5" y="658" width="7" height="7" fill="rgb(194,72,63)"/><rect x="932.5" y="658" width="7" height="7" fill="rgb(194,72,63)"/><rect x="946.5" y="658" width="7" height="7" fill="rgb(194,72,63)"/><rect x="960.5" y="658" width="7" height="7" fill="rgb(194,72,63)"/><rect x="967.5" y="658" width="7" height="7" fill="rgb(194,72,63)"/><rect x="925.5" y="665" width="7" height="7" fill="rgb(194,72,63)"/><rect x="932.5" y="665" width="7" height="7" fill="rgb(36,29,24)"/><rect x="939.5" y="665" width="7" height="7" fill="rgb(194,72,63)"/><rect x="946.5" y="665" width="7" height="7" fill="rgb(194,72,63)"/><rect x="953.5" y="665" width="7" height="7" fill="rgb(194,72,63)"/><rect x="960.5" y="665" width="7" height="7" fill="rgb(36,29,24)"/><rect x="967.5" y="665" width="7" height="7" fill="rgb(194,72,63)"/><rect x="925.5" y="672" width="7" height="7" fill="rgb(194,72,63)"/><rect x="932.5" y="672" width="7" height="7" fill="rgb(194,72,63)"/><rect x="939.5" y="672" width="7" height="7" fill="rgb(194,72,63)"/><rect x="946.5" y="672" width="7" height="7" fill="rgb(194,72,63)"/><rect x="953.5" y="672" width="7" height="7" fill="rgb(194,72,63)"/><rect x="960.5" y="672" width="7" height="7" fill="rgb(194,72,63)"/><rect x="967.5" y="672" width="7" height="7" fill="rgb(194,72,63)"/><rect x="925.5" y="679" width="7" height="7" fill="rgb(194,72,63)"/><rect x="932.5" y="679" width="7" height="7" fill="rgb(36,29,24)"/><rect x="939.5" y="679" width="7" height="7" fill="rgb(36,29,24)"/><rect x="946.5" y="679" width="7" height="7" fill="rgb(194,72,63)"/><rect x="953.5" y="679" width="7" height="7" fill="rgb(36,29,24)"/><rect x="960.5" y="679" width="7" height="7" fill="rgb(36,29,24)"/><rect x="967.5" y="679" width="7" height="7" fill="rgb(194,72,63)"/><rect x="932.5" y="686" width="7" height="7" fill="rgb(194,72,63)"/><rect x="953.5" y="686" width="7" height="7" fill="rgb(194,72,63)"/><text x="950" y="726" font-size="13.5" font-weight="600" fill="#3a322a" text-anchor="middle">폭주도치 <tspan fill="#e0a07f" font-weight="700">D급</tspan></text><rect x="1099" y="363" width="78" height="70" rx="14" fill="#fffdf8" stroke="#e7ddc9"/><rect x="1127.5" y="385.5" width="7" height="7" fill="rgb(215,119,87)"/><rect x="1134.5" y="385.5" width="7" height="7" fill="rgb(215,119,87)"/><rect x="1141.5" y="385.5" width="7" height="7" fill="rgb(215,119,87)"/><rect x="1120.5" y="392.5" width="7" height="7" fill="rgb(215,119,87)"/><rect x="1127.5" y="392.5" width="7" height="7" fill="rgb(31,23,20)"/><rect x="1134.5" y="392.5" width="7" height="7" fill="rgb(215,119,87)"/><rect x="1141.5" y="392.5" width="7" height="7" fill="rgb(31,23,20)"/><rect x="1148.5" y="392.5" width="7" height="7" fill="rgb(215,119,87)"/><rect x="1120.5" y="399.5" width="7" height="7" fill="rgb(215,119,87)"/><rect x="1127.5" y="399.5" width="7" height="7" fill="rgb(215,119,87)"/><rect x="1134.5" y="399.5" width="7" height="7" fill="rgb(215,119,87)"/><rect x="1141.5" y="399.5" width="7" height="7" fill="rgb(215,119,87)"/><rect x="1148.5" y="399.5" width="7" height="7" fill="rgb(215,119,87)"/><rect x="1127.5" y="406.5" width="7" height="7" fill="rgb(215,119,87)"/><rect x="1141.5" y="406.5" width="7" height="7" fill="rgb(215,119,87)"/><text x="1138" y="450" font-size="13.5" font-weight="600" fill="#3a322a" text-anchor="middle">방치도치</text><text x="1138" y="466" font-size="11.5" fill="#8a7d6b" text-anchor="middle">⚡ 低</text><path d="M1138 436 V498" stroke="rgb(150,112,200)" stroke-width="4.5" stroke-linecap="round"/><path d="M1138 574 V636" stroke="rgb(150,112,200)" stroke-width="4.5" stroke-linecap="round"/><rect x="1099" y="501" width="78" height="70" rx="14" fill="#fffdf8" stroke="#e7ddc9"/><rect x="1120.5" y="513" width="7" height="7" fill="rgb(138,154,95)"/><rect x="1127.5" y="513" width="7" height="7" fill="rgb(138,154,95)"/><rect x="1134.5" y="513" width="7" height="7" fill="rgb(138,154,95)"/><rect x="1141.5" y="513" width="7" height="7" fill="rgb(138,154,95)"/><rect x="1113.5" y="520" width="7" height="7" fill="rgb(138,154,95)"/><rect x="1120.5" y="520" width="7" height="7" fill="rgb(138,154,95)"/><rect x="1127.5" y="520" width="7" height="7" fill="rgb(138,154,95)"/><rect x="1134.5" y="520" width="7" height="7" fill="rgb(138,154,95)"/><rect x="1141.5" y="520" width="7" height="7" fill="rgb(138,154,95)"/><rect x="1148.5" y="520" width="7" height="7" fill="rgb(138,154,95)"/><rect x="1155.5" y="520" width="7" height="7" fill="rgb(138,154,95)"/><rect x="1113.5" y="527" width="7" height="7" fill="rgb(138,154,95)"/><rect x="1120.5" y="527" width="7" height="7" fill="rgb(31,23,20)"/><rect x="1127.5" y="527" width="7" height="7" fill="rgb(138,154,95)"/><rect x="1134.5" y="527" width="7" height="7" fill="rgb(138,154,95)"/><rect x="1141.5" y="527" width="7" height="7" fill="rgb(138,154,95)"/><rect x="1148.5" y="527" width="7" height="7" fill="rgb(31,23,20)"/><rect x="1155.5" y="527" width="7" height="7" fill="rgb(138,154,95)"/><rect x="1113.5" y="534" width="7" height="7" fill="rgb(138,154,95)"/><rect x="1120.5" y="534" width="7" height="7" fill="rgb(138,154,95)"/><rect x="1134.5" y="534" width="7" height="7" fill="rgb(138,154,95)"/><rect x="1141.5" y="534" width="7" height="7" fill="rgb(138,154,95)"/><rect x="1148.5" y="534" width="7" height="7" fill="rgb(138,154,95)"/><rect x="1155.5" y="534" width="7" height="7" fill="rgb(138,154,95)"/><rect x="1113.5" y="541" width="7" height="7" fill="rgb(138,154,95)"/><rect x="1120.5" y="541" width="7" height="7" fill="rgb(36,29,24)"/><rect x="1134.5" y="541" width="7" height="7" fill="rgb(174,184,106)"/><rect x="1148.5" y="541" width="7" height="7" fill="rgb(36,29,24)"/><rect x="1155.5" y="541" width="7" height="7" fill="rgb(138,154,95)"/><rect x="1120.5" y="548" width="7" height="7" fill="rgb(138,154,95)"/><rect x="1148.5" y="548" width="7" height="7" fill="rgb(138,154,95)"/><text x="1138" y="588" font-size="13.5" font-weight="600" fill="#3a322a" text-anchor="middle">좀비도치 <tspan fill="#e0a07f" font-weight="700">D급</tspan></text><rect x="1099" y="639" width="78" height="70" rx="14" fill="#fffdf8" stroke="#e7ddc9"/><rect x="1113.5" y="651" width="7" height="7" fill="rgb(138,117,96)"/><rect x="1155.5" y="651" width="7" height="7" fill="rgb(138,117,96)"/><rect x="1120.5" y="658" width="7" height="7" fill="rgb(138,117,96)"/><rect x="1127.5" y="658" width="7" height="7" fill="rgb(138,117,96)"/><rect x="1134.5" y="658" width="7" height="7" fill="rgb(138,117,96)"/><rect x="1141.5" y="658" width="7" height="7" fill="rgb(138,117,96)"/><rect x="1148.5" y="658" width="7" height="7" fill="rgb(138,117,96)"/><rect x="1113.5" y="665" width="7" height="7" fill="rgb(138,117,96)"/><rect x="1120.5" y="665" width="7" height="7" fill="rgb(31,23,20)"/><rect x="1127.5" y="665" width="7" height="7" fill="rgb(138,117,96)"/><rect x="1134.5" y="665" width="7" height="7" fill="rgb(138,117,96)"/><rect x="1141.5" y="665" width="7" height="7" fill="rgb(138,117,96)"/><rect x="1148.5" y="665" width="7" height="7" fill="rgb(31,23,20)"/><rect x="1155.5" y="665" width="7" height="7" fill="rgb(138,117,96)"/><rect x="1113.5" y="672" width="7" height="7" fill="rgb(138,117,96)"/><rect x="1120.5" y="672" width="7" height="7" fill="rgb(36,29,24)"/><rect x="1127.5" y="672" width="7" height="7" fill="rgb(138,117,96)"/><rect x="1134.5" y="672" width="7" height="7" fill="rgb(138,117,96)"/><rect x="1141.5" y="672" width="7" height="7" fill="rgb(138,117,96)"/><rect x="1148.5" y="672" width="7" height="7" fill="rgb(36,29,24)"/><rect x="1155.5" y="672" width="7" height="7" fill="rgb(138,117,96)"/><rect x="1113.5" y="679" width="7" height="7" fill="rgb(138,117,96)"/><rect x="1120.5" y="679" width="7" height="7" fill="rgb(150,110,80)"/><rect x="1127.5" y="679" width="7" height="7" fill="rgb(150,110,80)"/><rect x="1134.5" y="679" width="7" height="7" fill="rgb(150,110,80)"/><rect x="1141.5" y="679" width="7" height="7" fill="rgb(150,110,80)"/><rect x="1148.5" y="679" width="7" height="7" fill="rgb(150,110,80)"/><rect x="1155.5" y="679" width="7" height="7" fill="rgb(138,117,96)"/><rect x="1120.5" y="686" width="7" height="7" fill="rgb(138,117,96)"/><rect x="1148.5" y="686" width="7" height="7" fill="rgb(138,117,96)"/><text x="1138" y="726" font-size="13.5" font-weight="600" fill="#3a322a" text-anchor="middle">아재도치 <tspan fill="#c98c8c" font-weight="700">F급</tspan></text><rect x="104" y="744" width="1128" height="122" rx="16" fill="#2b2620"/><text x="126" y="778" font-size="16" font-weight="800" fill="#e8c15c">🔒 시크릿 — 실루엣만 공개</text><text x="126" y="800" font-size="12.5" fill="#c9bca8">특정 조건에서만 분기하는 히든 도치. 직접 키워서 확인하세요.</text><rect x="913" y="774" width="78" height="70" rx="14" fill="#3a342c" stroke="#4c4339" stroke-dasharray="4 3"/><rect x="934.5" y="786" width="7" height="7" fill="rgb(156,144,126)"/><rect x="948.5" y="786" width="7" height="7" fill="rgb(156,144,126)"/><rect x="962.5" y="786" width="7" height="7" fill="rgb(156,144,126)"/><rect x="934.5" y="793" width="7" height="7" fill="rgb(156,144,126)"/><rect x="941.5" y="793" width="7" height="7" fill="rgb(156,144,126)"/><rect x="948.5" y="793" width="7" height="7" fill="rgb(156,144,126)"/><rect x="955.5" y="793" width="7" height="7" fill="rgb(156,144,126)"/><rect x="962.5" y="793" width="7" height="7" fill="rgb(156,144,126)"/><rect x="927.5" y="800" width="7" height="7" fill="rgb(156,144,126)"/><rect x="934.5" y="800" width="7" height="7" fill="rgb(156,144,126)"/><rect x="941.5" y="800" width="7" height="7" fill="rgb(156,144,126)"/><rect x="948.5" y="800" width="7" height="7" fill="rgb(156,144,126)"/><rect x="955.5" y="800" width="7" height="7" fill="rgb(156,144,126)"/><rect x="962.5" y="800" width="7" height="7" fill="rgb(156,144,126)"/><rect x="969.5" y="800" width="7" height="7" fill="rgb(156,144,126)"/><rect x="927.5" y="807" width="7" height="7" fill="rgb(156,144,126)"/><rect x="934.5" y="807" width="7" height="7" fill="rgb(156,144,126)"/><rect x="941.5" y="807" width="7" height="7" fill="rgb(156,144,126)"/><rect x="948.5" y="807" width="7" height="7" fill="rgb(156,144,126)"/><rect x="955.5" y="807" width="7" height="7" fill="rgb(156,144,126)"/><rect x="962.5" y="807" width="7" height="7" fill="rgb(156,144,126)"/><rect x="969.5" y="807" width="7" height="7" fill="rgb(156,144,126)"/><rect x="927.5" y="814" width="7" height="7" fill="rgb(156,144,126)"/><rect x="934.5" y="814" width="7" height="7" fill="rgb(156,144,126)"/><rect x="948.5" y="814" width="7" height="7" fill="rgb(156,144,126)"/><rect x="962.5" y="814" width="7" height="7" fill="rgb(156,144,126)"/><rect x="969.5" y="814" width="7" height="7" fill="rgb(156,144,126)"/><rect x="934.5" y="821" width="7" height="7" fill="rgb(156,144,126)"/><rect x="962.5" y="821" width="7" height="7" fill="rgb(156,144,126)"/><text x="952" y="859" font-size="12.5" font-weight="700" fill="#c9bca8" text-anchor="middle" letter-spacing="2">❔ ？？？</text><rect x="1063" y="774" width="78" height="70" rx="14" fill="#3a342c" stroke="#4c4339" stroke-dasharray="4 3"/><rect x="1077.5" y="786" width="7" height="7" fill="rgb(156,144,126)"/><rect x="1084.5" y="786" width="7" height="7" fill="rgb(156,144,126)"/><rect x="1112.5" y="786" width="7" height="7" fill="rgb(156,144,126)"/><rect x="1119.5" y="786" width="7" height="7" fill="rgb(156,144,126)"/><rect x="1084.5" y="793" width="7" height="7" fill="rgb(156,144,126)"/><rect x="1091.5" y="793" width="7" height="7" fill="rgb(156,144,126)"/><rect x="1098.5" y="793" width="7" height="7" fill="rgb(156,144,126)"/><rect x="1105.5" y="793" width="7" height="7" fill="rgb(156,144,126)"/><rect x="1112.5" y="793" width="7" height="7" fill="rgb(156,144,126)"/><rect x="1077.5" y="800" width="7" height="7" fill="rgb(156,144,126)"/><rect x="1084.5" y="800" width="7" height="7" fill="rgb(156,144,126)"/><rect x="1091.5" y="800" width="7" height="7" fill="rgb(156,144,126)"/><rect x="1098.5" y="800" width="7" height="7" fill="rgb(156,144,126)"/><rect x="1105.5" y="800" width="7" height="7" fill="rgb(156,144,126)"/><rect x="1112.5" y="800" width="7" height="7" fill="rgb(156,144,126)"/><rect x="1119.5" y="800" width="7" height="7" fill="rgb(156,144,126)"/><rect x="1077.5" y="807" width="7" height="7" fill="rgb(156,144,126)"/><rect x="1084.5" y="807" width="7" height="7" fill="rgb(156,144,126)"/><rect x="1091.5" y="807" width="7" height="7" fill="rgb(156,144,126)"/><rect x="1098.5" y="807" width="7" height="7" fill="rgb(156,144,126)"/><rect x="1105.5" y="807" width="7" height="7" fill="rgb(156,144,126)"/><rect x="1112.5" y="807" width="7" height="7" fill="rgb(156,144,126)"/><rect x="1119.5" y="807" width="7" height="7" fill="rgb(156,144,126)"/><rect x="1084.5" y="814" width="7" height="7" fill="rgb(156,144,126)"/><rect x="1091.5" y="814" width="7" height="7" fill="rgb(156,144,126)"/><rect x="1098.5" y="814" width="7" height="7" fill="rgb(156,144,126)"/><rect x="1105.5" y="814" width="7" height="7" fill="rgb(156,144,126)"/><rect x="1112.5" y="814" width="7" height="7" fill="rgb(156,144,126)"/><rect x="1084.5" y="821" width="7" height="7" fill="rgb(156,144,126)"/><rect x="1112.5" y="821" width="7" height="7" fill="rgb(156,144,126)"/><text x="1102" y="859" font-size="12.5" font-weight="700" fill="#c9bca8" text-anchor="middle" letter-spacing="2">❔ ？？？</text>
</svg>